<svg width="85" height="76" viewBox="0 0 85 76" fill="none" xmlns="http://www.w3.org/2000/svg">
<ellipse cx="39.8387" cy="38" rx="39.8387" ry="38" fill="white"/>
<path d="M47.4698 31.4446C47.4698 32.9086 47.1338 34.2526 46.4618 35.4766C45.7898 36.6766 44.7578 37.6486 43.3658 38.3926C41.9738 39.1366 40.2458 39.5086 38.1818 39.5086H34.3658V48.5806H28.2098V23.3086H38.1818C40.1978 23.3086 41.9018 23.6566 43.2938 24.3526C44.6858 25.0486 45.7298 26.0086 46.4258 27.2326C47.1218 28.4566 47.4698 29.8606 47.4698 31.4446ZM37.7138 34.6126C38.8898 34.6126 39.7658 34.3366 40.3418 33.7846C40.9178 33.2326 41.2058 32.4526 41.2058 31.4446C41.2058 30.4366 40.9178 29.6566 40.3418 29.1046C39.7658 28.5526 38.8898 28.2766 37.7138 28.2766H34.3658V34.6126H37.7138Z" fill="black"/>
<path d="M53.5547 48.8686C52.4747 48.8686 51.5867 48.5566 50.8907 47.9326C50.2187 47.2846 49.8827 46.4926 49.8827 45.5566C49.8827 44.5966 50.2187 43.7926 50.8907 43.1446C51.5867 42.4966 52.4747 42.1726 53.5547 42.1726C54.6107 42.1726 55.4747 42.4966 56.1467 43.1446C56.8427 43.7926 57.1907 44.5966 57.1907 45.5566C57.1907 46.4926 56.8427 47.2846 56.1467 47.9326C55.4747 48.5566 54.6107 48.8686 53.5547 48.8686Z" fill="#915EFF"/>
</svg>
